<?xml version="1.0" encoding="utf-8"?>
<!-- Generator: Adobe Illustrator 19.0.0, SVG Export Plug-In . SVG Version: 6.00 Build 0)  -->
<svg version="1.1" id="Слой_1" xmlns="http://www.w3.org/2000/svg" xmlns:xlink="http://www.w3.org/1999/xlink" x="0px" y="0px"
	 viewBox="0 0 35 35" style="enable-background:new 0 0 35 35;" xml:space="preserve">
<style type="text/css">
	.st0{fill:#76889E;stroke:#FFFFFF;stroke-width:3;}
</style>
<path id="XMLID_5_" class="st0" d="M17.2,1.5c-5.5,0-10,4.5-10,10c0,10,10,22,10,22s10-12,10-22C27.2,6,22.7,1.5,17.2,1.5z
	 M17.2,17.6c-3.4,0-6.1-2.7-6.1-6.1s2.7-6.1,6.1-6.1s6.1,2.7,6.1,6.1S20.6,17.6,17.2,17.6z M13.3,11.5c0-2.1,1.7-3.9,3.9-3.9
	s3.9,1.7,3.9,3.9s-1.7,3.9-3.9,3.9S13.3,13.6,13.3,11.5z"/>
</svg>
