<?xml version="1.0" encoding="utf-8"?>
<!-- Generator: Adobe Illustrator 19.0.0, SVG Export Plug-In . SVG Version: 6.00 Build 0)  -->
<svg version="1.1" id="Слой_1" xmlns="http://www.w3.org/2000/svg" xmlns:xlink="http://www.w3.org/1999/xlink" x="0px" y="0px"
	 viewBox="-341 -60.9 595.3 841.9" style="enable-background:new -341 -60.9 595.3 841.9;" xml:space="preserve">
<style type="text/css">
	.st0{fill:#2B2A29;}
</style>
<g>
	<path class="st0" d="M170.8,600.1c-20.2-3-52.2,29.6-55.7,66.1c-3.9,40.6,8.4,66.5,33.5,66.5s48.4-31.4,52.5-63.9
		C205.2,636.3,196.3,603.8,170.8,600.1z"/>
	<path class="st0" d="M139,738.9c-0.4,0-0.9,0-1.3-0.1C140.5,739.5,141.6,739,139,738.9z"/>
	<path class="st0" d="M-236.5,641.8c1.4-40.2-15.5-65.6-45.8-65.6c-30.3,0-45.8,25.1-45.8,66s15.5,69.3,45.8,69.3
		C-252,711.4-237.6,672.3-236.5,641.8z"/>
	<path class="st0" d="M-160.3,498.4c6.5-19.2,41.9-56.5,97.1-55.9c22.6,0.3,85,10.8,105.3,55.9c1.8-24,6-49.3,17.7-72.1
		c23.6-44.8,69.7-86.1,102.8-120.5c-32.8,17.1-59.7,21.9-80.7,25.7c-7.8,1.4-32.8,23.9-41,24.8c-7,0.8-24.5-18.2-32.2-17.7
		c-20.4,1.4-22.6,2.7-52.6,2.2c-28.8-0.5-32.3-0.4-55.8-2.8c-11.5-1.2-24.6,18.7-35.9,16.4c-8.8-1.8-36.8-28.7-45.9-31.3
		c-21.9-6.5-56.5-18.8-88.5-42.2l79.1,111.1C-169,435.4-161.8,461.4-160.3,498.4z"/>
	<path class="st0" d="M104.5,670.5c3.7-61.9,54.8-71.8,42.6-71.9c-70.4-0.8-97.1-44-97.9-54.8c-3.7-51.5-30-73.8-93.6-84.5
		c-61.1-10.3-120.8,27.1-122.1,71.3c-0.4,14.5-54.2,39.6-83,48c-8.9,2.6,29.5,8.2,21.7,73c-7.2,59.7-43.9,59.5-34,59.5
		c85.7,0,95.4-89.4,191.5-82.2c89.3,6.6,120.3,100,201.8,103.3C123.5,730.7,101.4,720.7,104.5,670.5z"/>
	<path class="st0" d="M-27.3-34.4c-164.9,0-262.8,64.7-289.4,181.7s105.1,181.8,270,181.8s280.1-23.3,280.1-161.6
		S137.7-34.4-27.3-34.4z M-201.5,136.1c0-18.5,53.2-50.8,93-47.5c47.5,4,11.5,19.5,11.5,19.5c-11.5-1.1-38.7,1-38.7,1
		C-184,119.9-201.5,154.6-201.5,136.1z M63.4,298.8c-12.2-2.4-30.2,1.2-32.8-12.5c0-0.2,0-0.3-0.1-0.5c0,0.8,0.2,1.6,0.4,2.6
		c0.4,1.8,1.6,3.2,2.7,4.5c-10.1,5.6-33.8,10.7-77,10.7c-19.4,0-67.9-5.3-83.4-15.7c-5.2,4.2-15.8,7.6-30.7,4.8
		c-7.6-1.5-17.9-6.2,0.4-5.5c16.8,0.6,19.9-1.4,22.6-3.4c10.9-8.2-3.7-36.3,0.9-36.3c11.1,0,12.1,32.3,9.8,36.9
		c-0.5,1.1-1.5,2.2-2.8,3.3c0.7-0.5,2.6-1.6,3.2-3.6c0.6-1.9,0.6-2.4,0.9-4.8c14.6,2.2,45,10.8,79.4,12.1c36.5,1.4,61.3-5,73.6-7
		c0.3-14.9,28.6-47.8,24.1-31.5c-1.4,4.1-8.6,9.1-12.3,16.4c-4.7,9.3-3.7,19.5,4.1,20.5C72.3,293.3,73.9,300.8,63.4,298.8z
		 M110.2,145.2c-6.3,0-42.7-26.7-83.3-30.5c-25-2.3-25.4,2.4-29.7-1.2c-16.7-13.9,3.8-18.8,30.7-18.8
		C72.5,94.7,130.6,145.2,110.2,145.2z"/>
	<path class="st0" d="M26.8,290.3C26.8,290.3,26.8,290.3,26.8,290.3c-0.1,0.5,0,1.1,0,1.5C26.8,291.3,26.8,290.8,26.8,290.3z"/>
	<path class="st0" d="M-136,293.9C-136,293.9-136,293.9-136,293.9c0.1-0.1,0.2-0.2,0.3-0.2C-135.9,293.8-136,293.9-136,293.9z"/>
</g>
</svg>
