<?xml version="1.0" encoding="utf-8"?>
<!-- Generator: Adobe Illustrator 19.0.0, SVG Export Plug-In . SVG Version: 6.00 Build 0)  -->
<svg version="1.1" id="Слой_1" xmlns="http://www.w3.org/2000/svg" xmlns:xlink="http://www.w3.org/1999/xlink" x="0px" y="0px"
	 viewBox="0 0 35 35" style="enable-background:new 0 0 35 35;" xml:space="preserve">
<style type="text/css">
	.st0{fill:#76889E;stroke:#FFFFFF;stroke-width:3;}
</style>
<path id="XMLID_10_" class="st0" d="M32.5,28.7l-7.6-6.4c-0.8-0.7-1.6-1-2.3-1c1.8-2.1,2.9-4.8,2.9-7.8c0-6.6-5.4-12-12-12
	s-12,5.4-12,12s5.4,12,12,12c3,0,5.7-1.1,7.8-2.9c0,0.7,0.3,1.5,1,2.3l6.4,7.6c1.1,1.2,2.9,1.3,4,0.2C33.8,31.6,33.7,29.8,32.5,28.7
	z M13.5,21.5c-4.4,0-8-3.6-8-8s3.6-8,8-8s8,3.6,8,8S17.9,21.5,13.5,21.5z"/>
</svg>
